<?xml version="1.0" standalone="no"?><!DOCTYPE svg PUBLIC "-//W3C//DTD SVG 1.1//EN" "http://www.w3.org/Graphics/SVG/1.1/DTD/svg11.dtd"><svg t="1575834180966" class="icon" viewBox="0 0 1111 1024" version="1.1" xmlns="http://www.w3.org/2000/svg" p-id="2080" xmlns:xlink="http://www.w3.org/1999/xlink" width="34.71875" height="32"><defs><style type="text/css"></style></defs><path d="M1111.427122 746.708293V960.062439c0 17.745171-6.106537 33.005268-18.606829 45.355707-12.51278 12.487805-27.648 18.581854-45.430634 18.581854H64.037463c-17.782634 0-33.05522-6.094049-45.430634-18.581854-12.500293-12.487805-18.606829-27.610537-18.606829-45.355707V746.708293c0-17.757659 6.106537-33.017756 18.606829-45.355708 12.51278-12.487805 27.648-18.594341 45.430634-18.594341h310.646635l90.174439 90.723902c25.837268 24.963122 55.982829 37.313561 90.861268 37.313561 34.865951 0 65.011512-12.487805 90.84878-37.313561l90.861269-90.723902h310.09717c17.782634 0 33.067707 6.106537 45.430635 18.594341 12.088195 12.612683 18.469463 27.735415 18.469463 45.355708zM894.426537 367.316293c7.642537 18.169756 4.445659 33.841951-9.453269 46.741853L585.728 712.866341c-8.067122 8.454244-17.932488 12.612683-30.008195 12.612683-12.088195 0-22.090927-4.158439-30.020683-12.612683L226.316488 414.058146c-13.761561-12.899902-16.958439-28.434732-9.453268-46.741853 7.642537-17.345561 20.70478-25.937171 39.461463-25.937171h171.020488V42.570927c0-11.513756 4.170927-21.641366 12.637658-29.958244C448.462049 4.283317 458.327415-0.012488 469.991024-0.012488h171.020488c11.538732 0 21.678829 4.158439 30.008195 12.625171 8.341854 8.466732 12.650146 18.444488 12.650147 29.958244v298.808195h171.157853c18.756683 0 31.956293 8.59161 39.59883 25.937171z m-52.236488 558.891707c8.466732-8.454244 12.637659-18.444488 12.637658-29.958244a40.710244 40.710244 0 0 0-12.637658-29.970732c-8.47922-8.316878-18.481951-12.612683-30.008195-12.612683-11.538732 0-21.678829 4.158439-30.008195 12.612683-8.341854 8.466732-12.650146 18.456976-12.650147 29.970732 0 11.513756 4.170927 21.641366 12.650147 29.958244 8.466732 8.329366 18.332098 12.625171 30.008195 12.625171 11.526244 0.137366 21.666341-4.158439 30.008195-12.625171z m171.020488 0c8.47922-8.454244 12.637659-18.444488 12.637658-29.958244 0-11.513756-4.158439-21.641366-12.637658-29.970732-8.47922-8.316878-18.481951-12.612683-30.008196-12.612683-11.538732 0-21.678829 4.158439-30.008195 12.612683-8.341854 8.466732-12.650146 18.456976-12.650146 29.970732 0 11.513756 4.170927 21.641366 12.650146 29.958244 8.466732 8.329366 18.332098 12.625171 30.008195 12.625171 11.526244 0.137366 21.528976-4.158439 30.008196-12.625171z" fill="#CBCBCB" p-id="2081"></path></svg>