<?xml version="1.0" standalone="no"?><!DOCTYPE svg PUBLIC "-//W3C//DTD SVG 1.1//EN" "http://www.w3.org/Graphics/SVG/1.1/DTD/svg11.dtd"><svg t="1575834204444" class="icon" viewBox="0 0 1111 1024" version="1.1" xmlns="http://www.w3.org/2000/svg" p-id="2202" xmlns:xlink="http://www.w3.org/1999/xlink" width="34.71875" height="32"><defs><style type="text/css"></style></defs><path d="M1111.358291 746.708881V960.052211c0 17.744271-6.106227 33.003595-18.605886 45.353408-12.512146 12.487172-27.646598 18.593399-45.428331 18.593399H64.02173c-17.781733 0-33.053544-6.106227-45.428331-18.593399-12.499659-12.487172-18.605886-27.609137-18.605886-45.353408V746.708881c0-17.756758 6.106227-33.016082 18.605886-45.353408 12.512146-12.487172 27.646598-18.593399 45.428331-18.593399h310.630886l90.169867 90.719303c25.835958 24.961856 55.979991 37.311669 90.856662 37.31167 34.864184 0 65.008216-12.487172 90.844175-37.31167l90.856662-90.719303h310.081451c17.781733 0 33.066031 6.106227 45.428331 18.593399 12.087582 12.612044 18.468527 27.734009 18.468527 45.353408zM895.142911 357.59612c7.654636-18.143861 4.445433-33.790287-9.477763-46.677048L585.748255 12.625512c-8.0792-8.453815-17.956553-12.612044-30.06911-12.612044-12.125044 0-22.139756 4.158228-30.081596 12.612044L225.53081 310.919072c-13.773351 12.886761-16.982554 28.395829-9.465276 46.677048 7.667123 17.30722 20.75368 25.898394 39.546873 25.898395h171.39892v298.29356c0 11.500685 4.183203 21.602807 12.67448 29.919263 8.491277 8.303969 18.381117 12.599556 30.081596 12.599557h171.398921a40.957924 40.957924 0 0 0 30.069109-12.599557c8.353918-8.453815 12.674479-18.418578 12.67448-29.919263V383.494515h171.548766c18.793194 0 32.017109-8.591174 39.684232-25.898395z m-53.008044 568.603369c8.466302-8.453815 12.637018-18.443553 12.637018-29.956726a40.70818 40.70818 0 0 0-12.637018-29.969212c-8.47879-8.316456-18.481014-12.612044-30.006674-12.612043-11.538147 0-21.67773 4.158228-30.006674 12.612043-8.341431 8.466302-12.649505 18.45604-12.649505 29.969212 0 11.513172 4.170715 21.640269 12.649505 29.956726 8.466302 8.328944 18.331168 12.624531 30.006674 12.62453 11.52566 0.137359 21.665243-4.158228 30.006674-12.62453z m171.011818 0c8.47879-8.453815 12.637018-18.443553 12.637017-29.956726 0-11.513172-4.158228-21.640269-12.637017-29.969212-8.47879-8.316456-18.481014-12.612044-30.006674-12.612043-11.538147 0-21.67773 4.158228-30.006674 12.612043-8.341431 8.466302-12.649505 18.45604-12.649505 29.969212 0 11.513172 4.170715 21.640269 12.649505 29.956726 8.466302 8.328944 18.331168 12.624531 30.006674 12.62453 11.52566 0.137359 21.527884-4.158228 30.006674-12.62453z" fill="#CBCBCB" p-id="2203"></path></svg>